<svg xmlns="http://www.w3.org/2000/svg" width="12.867" height="14" viewBox="0 0 13.367 15.277">
    <path id="Icon_awesome-calendar-alt" data-name="Icon awesome-calendar-alt" d="M0,13.845a1.433,1.433,0,0,0,1.432,1.432h10.5a1.433,1.433,0,0,0,1.432-1.432V5.729H0ZM9.548,8a.359.359,0,0,1,.358-.358H11.1A.359.359,0,0,1,11.458,8V9.19a.359.359,0,0,1-.358.358H9.906a.359.359,0,0,1-.358-.358Zm0,3.819a.359.359,0,0,1,.358-.358H11.1a.359.359,0,0,1,.358.358v1.193a.359.359,0,0,1-.358.358H9.906a.359.359,0,0,1-.358-.358ZM5.729,8a.359.359,0,0,1,.358-.358H7.28A.359.359,0,0,1,7.638,8V9.19a.359.359,0,0,1-.358.358H6.087a.359.359,0,0,1-.358-.358Zm0,3.819a.359.359,0,0,1,.358-.358H7.28a.359.359,0,0,1,.358.358v1.193a.359.359,0,0,1-.358.358H6.087a.359.359,0,0,1-.358-.358ZM1.91,8a.359.359,0,0,1,.358-.358H3.461A.359.359,0,0,1,3.819,8V9.19a.359.359,0,0,1-.358.358H2.268A.359.359,0,0,1,1.91,9.19Zm0,3.819a.359.359,0,0,1,.358-.358H3.461a.359.359,0,0,1,.358.358v1.193a.359.359,0,0,1-.358.358H2.268a.359.359,0,0,1-.358-.358ZM11.935,1.91H10.5V.477A.479.479,0,0,0,10.025,0H9.071a.479.479,0,0,0-.477.477V1.91H4.774V.477A.479.479,0,0,0,4.3,0H3.342a.479.479,0,0,0-.477.477V1.91H1.432A1.433,1.433,0,0,0,0,3.342V4.774H13.367V3.342A1.433,1.433,0,0,0,11.935,1.91Z" fill="#38ffe2" />
</svg>
