<svg xmlns="http://www.w3.org/2000/svg" width="20.759" height="16.684" viewBox="0 0 20.759 16.684">
    <g id="Icon_ionic-md-planet" data-name="Icon ionic-md-planet" transform="translate(-2.253 -5.348)">
      <path id="Pfad_255" data-name="Pfad 255" d="M9.369,9.28c-.116.139-.227.278-.334.426a43.434,43.434,0,0,0,5.755,5.268,44.927,44.927,0,0,0,5.162,3.48c.273.153.542.3.8.436.116-.139.227-.278.334-.426a6.938,6.938,0,0,0,1.08-2.484c.037-.148.07-.3.1-.44A7.447,7.447,0,0,0,11.848,7.375,6.916,6.916,0,0,0,9.369,9.28Z" transform="translate(-2.313 -0.46)" fill="#38ffe2"/>
      <path id="Pfad_256" data-name="Pfad 256" d="M20.146,16.966a8.632,8.632,0,0,1-.343.811,11.581,11.581,0,0,1,1.478,2.15c.111.19.343.607.042.575a2.21,2.21,0,0,1-.255-.06,17.578,17.578,0,0,1-3.906-1.733,46,46,0,0,1-5.25-3.535A43.294,43.294,0,0,1,5.86,9.589,15.9,15.9,0,0,1,4.206,7.37a3.5,3.5,0,0,1-.259-.482c-.116-.287.232-.236.324-.213a9.709,9.709,0,0,1,2.7,1.1,3.894,3.894,0,0,1,.644-.528A15.141,15.141,0,0,0,4.591,5.6c-1.07-.408-1.9-.315-2.2.171-.565.922.649,3.35,3.026,6.116a7.446,7.446,0,0,0,10.81,8.34,26.427,26.427,0,0,0,4.49,1.617c1.107.283,1.872.255,2.169-.227C23.4,20.78,22.324,19.223,20.146,16.966Z" fill="#38ffe2"/>
    </g>
  </svg>
