<svg xmlns="http://www.w3.org/2000/svg" width="17.553" height="16.684" viewBox="0 0 17.553 16.684">
    <path id="Icon_ionic-md-star-outline" data-name="Icon ionic-md-star-outline" d="M21.349,10.861l-6.311-.542L12.573,4.5l-2.465,5.819L3.8,10.861l4.787,4.15L7.149,21.184l5.424-3.272L18,21.184l-1.435-6.172Zm-8.058,5.86-.718-.433-.718.433L9.249,18.293l.69-2.967.19-.816L9.5,13.961l-2.3-2,3.034-.261.834-.072.327-.771,1.185-2.8,1.185,2.8.327.771.835.072,3.035.261-2.3,2-.633.549.19.816.69,2.967Z" transform="translate(-3.797 -4.5)" fill="#38ffe2" />
</svg>
